<?xml version="1.0" encoding="utf-8" ?>
<svg baseProfile="full" height="249" version="1.1" width="696" xmlns="http://www.w3.org/2000/svg" xmlns:ev="http://www.w3.org/2001/xml-events" xmlns:xlink="http://www.w3.org/1999/xlink"><defs /><rect fill="#0a0a0a" height="249" width="696" x="0" y="0" /><text fill="white" font-family="sans-serif" font-size="20" font-style="italic" font-weight="bold" x="40" y="30">Jingke's 2023 Run</text><polyline fill="none" points="52.1,122.2 51.3,121.8 50.8,120.7 50.7,120.7 50.7,121.1 50.5,121.4 50.2,121.7 49.8,121.8 49.3,121.8 47.9,121.9 47.4,122.0 45.0,122.3 44.1,122.5 44.0,122.9 44.0,123.2 44.5,123.3 45.3,123.1 46.6,123.1 46.9,122.8 47.4,122.7 48.9,122.7 49.8,122.7 50.8,123.0 52.7,123.0 54.1,122.9 55.5,123.1 56.4,123.2 57.7,123.0 58.0,122.8 58.5,122.7 60.3,122.7 61.8,122.7 62.6,122.8 63.1,122.7 63.9,123.0 65.8,122.9 66.6,122.7 67.0,122.9 67.4,122.9 69.9,122.7 72.9,122.8 74.7,122.6 76.1,122.6 77.9,122.3 79.3,122.4 79.7,122.5 80.0,122.3 79.5,120.1 79.3,118.9 79.1,118.6 78.8,118.3 78.7,117.9 79.0,117.2 78.9,116.1 78.6,114.9 78.3,113.9 78.4,113.9 78.2,113.1 78.2,112.3 77.7,109.8 77.5,109.0 77.3,107.4 77.1,107.0 76.8,106.7 76.6,105.5 76.4,104.7 76.4,104.4 76.5,104.0 76.4,102.5 76.2,101.7 76.0,101.0 75.6,100.8 75.2,100.7 74.3,100.8 72.6,101.0 72.2,101.0 71.8,101.3 71.8,100.8 71.7,100.8 70.6,101.5 70.2,101.6 68.9,101.7 68.4,101.8 68.1,101.9 67.4,102.6 67.0,102.8 66.6,102.9 66.1,102.8 65.6,102.8 62.6,104.1 61.3,104.6 60.4,105.1 58.8,105.8 56.4,107.0 54.4,108.1 53.6,108.4 53.2,108.6 52.9,108.9 52.6,109.2 52.5,109.6 52.4,109.9 52.5,111.5 52.7,113.4 52.7,113.8 52.3,113.9 52.0,114.2 51.9,114.9 51.4,114.9 47.6,115.0 47.2,115.1 46.9,115.3 46.9,116.0 46.9,116.8 47.0,117.2 47.4,117.3 47.9,117.3 48.8,117.1 49.6,117.1 50.0,117.3 50.2,117.7 50.5,118.7 50.6,119.6 50.9,120.4 51.0,121.2 51.3,121.4" stroke="#71717a" stroke-linecap="round" stroke-linejoin="round" stroke-width="1.2" /><polyline fill="none" points="105.1,122.5 103.8,122.2 102.1,122.1 100.7,122.1 99.8,122.2 98.9,122.2 97.6,122.5 96.3,122.6 96.0,122.9 96.1,123.1 96.2,123.5 97.4,123.4 98.6,123.3 98.9,123.0 100.7,122.8 101.7,122.9 102.5,123.1 106.3,123.1 108.6,123.4 109.4,123.3 109.7,123.0 112.0,123.0 113.1,122.9 113.9,122.9 114.4,122.9 114.7,122.8 114.8,122.9 115.2,122.9 115.6,123.1 116.0,123.1 117.9,123.1 118.3,122.9 118.7,122.9 119.1,123.1 119.6,123.1 122.4,122.9 124.4,123.0 126.3,122.9 127.6,122.9 129.4,122.6 129.8,122.6 130.7,122.8 131.2,122.8 131.6,122.7 132.0,122.5 131.4,120.0 131.3,119.2 131.2,118.8 130.9,118.5 130.8,118.1 131.1,117.4 130.6,115.1 130.4,114.3 130.2,113.5 130.1,111.9 129.9,110.7 129.7,109.5 129.5,108.7 129.4,107.6 129.2,107.3 128.9,107.0 128.9,106.8 128.9,106.8 128.7,106.4 128.9,105.6 128.7,104.5 128.7,103.7 128.5,103.4 128.1,101.4 127.4,100.5 127.0,100.5 125.3,100.9 121.9,101.4 121.0,101.7 119.8,101.9 119.3,101.9 118.9,101.8 118.5,101.9 117.4,102.6 116.1,103.2 114.9,103.9 113.3,104.6 110.9,105.5 107.2,107.3 105.1,108.4 104.4,108.9 104.2,109.2 104.0,109.6 103.9,110.0 103.9,110.4 103.9,111.1 104.2,113.0 104.3,113.8 104.0,114.9 103.7,115.1 100.4,115.3 98.6,115.4 98.5,115.8 98.6,116.2 98.7,116.6 98.9,116.9 98.9,117.3 99.2,117.5 99.6,117.6 100.9,117.3 101.3,117.3 101.8,117.5 102.3,118.2 102.5,118.6 102.7,119.7 103.0,120.9 103.0,121.6 103.3,121.8" stroke="#71717a" stroke-linecap="round" stroke-linejoin="round" stroke-width="1.2" /><polyline fill="none" points="167.5,128.0 164.5,128.1 163.9,128.4 163.5,129.5 163.1,130.0 163.9,130.0 165.2,129.7 166.8,129.6 167.5,129.5 168.1,129.0 171.1,128.9 172.6,129.1 174.0,129.5 176.2,129.2 180.3,129.3 180.7,128.7 180.3,127.4 179.9,125.3 179.7,123.2 180.1,121.9 180.1,121.2 179.1,119.4 178.7,117.4 178.6,116.7 178.8,116.0 178.6,115.3 178.3,114.7 178.2,113.5 177.5,111.5 177.2,108.5 177.3,107.0 177.3,106.3 177.5,105.6 177.5,104.9 177.2,104.2 176.5,103.3 176.0,101.9 174.6,94.7 174.2,94.2 173.4,94.0 172.7,94.1 164.0,96.8 161.6,97.4 159.2,98.2 153.9,99.7 152.3,100.1 151.8,100.5 151.3,101.8 151.5,102.5 151.7,106.1 152.0,108.2 152.2,112.0 152.3,113.3 152.7,114.5 153.2,114.9 156.7,114.6 157.1,115.1 157.8,115.2 162.3,115.0 163.9,115.0 164.7,115.4 165.2,116.0 166.7,116.3 167.1,118.3 167.5,118.9 167.6,119.6 168.1,120.0 169.7,120.0 171.3,119.8 172.0,119.8" stroke="#71717a" stroke-linecap="round" stroke-linejoin="round" stroke-width="1.2" /><polyline fill="none" points="220.4,97.7 216.7,95.1 212.6,94.4 208.1,95.5 204.3,98.1 202.4,101.1 203.6,109.0 214.1,125.1 217.1,128.1 221.6,129.3 226.1,129.6 229.8,128.1 232.8,124.8 233.9,121.0 232.8,117.3 224.6,103.8 220.1,97.4 217.1,95.1 212.9,94.0 208.8,94.4 205.4,96.6 203.2,99.6 202.4,103.4 202.8,106.8 204.3,110.1 214.8,125.5 217.8,128.1 221.9,129.6 226.1,130.0 229.8,128.1 232.4,125.5 233.2,122.1 233.2,118.4 231.7,114.6 221.6,98.9 218.6,96.3 214.8,94.4 210.7,94.0 206.6,95.5 203.6,98.5 202.1,101.9 202.4,105.6 205.4,112.8 211.1,119.5 215.6,126.3 218.9,128.5 223.1,129.6 227.2,129.6 230.6,127.0 233.2,124.0 233.9,119.9 232.4,116.1 230.2,112.8 221.6,99.6 218.9,96.6 215.2,94.7 211.1,94.4 206.9,95.9 204.3,99.3 202.8,102.6 203.9,106.8 205.8,110.1 214.8,124.8 217.4,127.8 221.2,129.6 225.7,129.6 229.8,128.1 232.4,125.1 233.6,121.8 233.2,118.0 230.6,114.6 226.8,107.1 219.7,97.0 215.6,95.1 211.1,94.4 206.9,95.5 203.9,98.1 202.1,101.9 202.8,105.6 216.7,127.0 220.4,129.3 225.3,129.3 229.8,128.1 232.8,124.8 233.6,120.6 232.8,116.5 220.8,98.1 217.8,95.1 213.3,94.0 208.4,94.7 205.1,97.0 202.8,100.4 202.4,104.5 203.2,109.0 215.6,126.6 219.7,129.3 224.6,129.6 229.1,128.1 232.1,124.8 233.2,120.6 232.1,116.5 220.4,97.7 217.8,94.7 213.3,94.0 208.4,95.1 204.7,97.7 202.8,101.9 203.2,106.0 214.8,125.1 217.8,128.1 222.3,130.0 227.6,129.3 231.3,126.6 233.2,122.9 233.2,118.4 231.7,115.0 223.1,101.9 217.8,95.5 213.3,94.4 208.4,95.1 204.3,98.1 202.8,101.5 203.2,105.2 204.7,108.6 217.4,128.1 221.2,129.6 225.3,130.0 229.4,128.5 232.4,126.3 234.3,122.9 234.3,119.1 232.8,115.7 219.7,97.0 215.6,94.4 210.7,94.0 205.8,96.3 203.2,98.9 201.7,102.3 202.4,106.0 214.8,124.8 217.4,128.1 221.2,129.6 225.3,129.6 228.7,128.1 231.7,125.5 233.6,122.1 233.6,118.4 231.7,114.6 227.2,108.3 225.7,104.9 221.2,98.5 218.6,95.9 214.4,94.0 210.3,94.0 206.9,95.5 204.7,98.5 203.9,101.9 206.2,109.0" stroke="#71717a" stroke-linecap="round" stroke-linejoin="round" stroke-width="1.2" /><polyline fill="none" points="260.7,122.3 259.9,122.1 258.2,122.0 257.8,122.0 257.3,122.0 255.0,122.0 254.6,122.0 253.7,122.3 252.0,122.4 252.1,122.8 252.0,122.9 252.0,123.2 252.5,123.3 253.5,123.1 254.7,123.0 255.1,122.7 255.5,122.7 256.4,122.6 256.9,122.6 257.9,122.7 258.8,123.0 260.2,123.0 262.1,123.0 264.4,123.2 265.2,123.1 265.7,123.0 266.0,122.8 266.4,122.7 268.2,122.7 269.6,122.6 270.4,122.7 270.9,122.7 271.3,122.7 271.7,122.9 272.2,123.0 273.1,123.0 274.0,122.9 274.4,122.7 274.8,122.7 275.2,122.9 275.6,122.9 278.5,122.7 280.4,122.8 282.2,122.7 283.1,122.6 284.4,122.5 285.7,122.3 287.2,122.3 287.6,122.5 288.0,122.3 287.6,120.8 287.3,119.0 287.2,118.6 286.9,118.3 286.7,118.0 286.8,117.6 287.0,117.3 287.0,116.9 286.5,114.6 286.3,113.8 286.2,113.0 286.2,112.2 285.8,110.2 285.6,108.9 285.3,107.4 285.2,107.0 284.8,106.8 284.8,106.4 284.7,106.0 284.9,105.7 284.8,105.2 284.6,104.6 284.5,102.6 284.1,101.0 283.8,100.8 283.4,100.7 282.5,100.9 282.0,100.9 279.0,101.4 278.1,101.7 276.2,101.9 275.8,102.1 275.5,101.9 275.0,101.5 275.1,101.6 275.2,101.3 275.2,101.3 275.2,101.4 274.3,101.8 274.0,102.0 273.6,102.3 272.4,102.9 270.7,103.6 269.9,104.1 266.9,105.4 264.0,106.7 262.8,107.5 261.1,108.3 260.4,108.8 260.0,109.4 259.9,109.8 259.9,110.2 260.1,111.3 260.3,112.8 260.3,113.6 260.1,114.0 259.7,114.2 255.8,114.6 255.3,114.7 255.0,114.9 254.9,115.4 255.1,116.1 254.9,116.5 254.9,116.9 255.1,117.2 255.6,117.3 256.0,117.3 257.3,117.1 257.8,117.2 258.1,117.6 258.4,118.2 258.5,118.6 258.7,119.6 258.9,120.4 259.0,120.8 258.9,121.2 259.3,121.4 259.8,121.5" stroke="#71717a" stroke-linecap="round" stroke-linejoin="round" stroke-width="1.2" /><polyline fill="none" points="312.3,122.2 311.0,122.0 309.6,121.9 308.7,121.9 307.2,121.9 305.9,122.3 304.0,122.2 304.1,122.9 304.3,123.2 306.7,123.0 307.0,122.8 309.0,122.7 310.0,122.7 310.9,123.0 311.4,123.0 314.3,122.9 315.3,123.0 316.7,123.2 317.6,123.1 317.9,122.8 318.7,122.7 320.0,122.8 321.4,122.7 322.8,122.8 323.2,122.7 324.0,123.0 324.5,122.9 325.9,122.9 326.7,122.7 327.5,122.9 329.5,122.7 332.5,122.8 334.0,122.7 334.9,122.6 336.4,122.6 338.8,122.4 339.3,122.4 339.7,122.6 340.0,122.3 339.8,121.6 339.6,120.0 339.4,119.7 339.4,118.9 339.2,118.6 338.9,118.3 338.9,117.9 339.1,117.5 339.2,117.1 338.8,115.5 338.7,114.7 338.3,113.9 338.2,111.8 337.4,107.7 337.3,107.3 336.8,106.5 336.4,105.4 336.3,105.1 336.2,104.7 336.6,104.0 336.5,103.2 336.4,102.0 336.2,101.2 336.0,100.9 335.5,100.8 334.2,100.8 332.5,101.1 328.5,101.5 327.7,101.6 327.6,102.0 327.6,102.4 327.4,102.7 326.5,102.8 326.1,102.7 325.7,102.8 323.5,103.8 321.6,104.5 319.3,105.5 317.7,106.4 316.0,107.1 314.4,108.0 313.6,108.4 313.0,108.8 312.7,109.1 312.6,109.5 312.5,110.2 312.8,113.4 312.8,113.7 312.0,114.1 311.6,114.2 309.6,114.4 308.4,114.6 307.5,114.7 307.0,115.3 307.0,115.7 306.9,116.8 307.1,117.2 307.6,117.3 308.5,117.2 309.4,117.1 309.9,117.3 310.1,117.6 310.6,118.7 310.7,119.8 311.0,120.6 311.0,121.3 311.3,121.5 311.8,121.6" stroke="#71717a" stroke-linecap="round" stroke-linejoin="round" stroke-width="1.2" /><polyline fill="none" points="364.5,122.4 364.1,122.4 361.8,122.0 360.0,121.9 358.6,122.1 357.7,122.3 356.3,122.5 356.0,122.7 356.0,123.2 356.4,123.3 358.6,123.1 358.9,122.8 359.3,122.7 360.4,122.6 361.3,122.6 362.7,122.9 364.1,123.0 366.0,122.9 368.4,123.2 370.9,122.9 371.8,122.9 373.7,122.8 374.6,122.8 375.0,122.6 375.5,122.7 375.9,122.9 377.7,122.9 378.5,122.7 379.5,122.9 380.9,122.9 382.3,122.7 385.8,122.7 387.2,122.6 388.1,122.6 390.0,122.4 391.3,122.4 391.7,122.6 392.0,122.4 391.9,121.9 391.6,120.4 391.3,118.9 391.2,118.5 390.8,118.3 390.7,117.9 391.1,117.2 391.0,116.8 390.3,113.6 390.2,111.9 389.9,110.7 389.9,110.3 389.5,107.5 389.3,107.1 389.0,106.8 388.8,106.4 388.7,106.1 388.8,105.6 388.6,104.5 388.7,104.1 388.6,103.7 388.5,102.6 388.1,101.1 387.8,100.8 387.3,100.7 386.5,100.8 384.4,101.2 379.1,102.8 377.8,102.7 377.3,102.9 370.4,105.9 369.2,106.6 367.9,107.1 366.8,107.9 365.5,108.4 364.9,108.9 364.6,109.3 364.4,110.0 364.4,110.4 364.6,111.9 364.8,113.7 364.3,113.9 363.5,114.2 361.2,114.3 359.4,114.3 359.2,114.5 358.9,114.8 358.9,115.2 359.0,116.0 359.3,116.2 361.1,116.2 361.5,116.4 361.8,117.2 362.1,117.9 362.4,118.7 362.8,120.6 362.9,121.4 363.3,121.6" stroke="#71717a" stroke-linecap="round" stroke-linejoin="round" stroke-width="1.2" /><polyline fill="none" points="418.6,125.4 416.2,125.0 413.2,124.9 408.4,125.5 408.0,125.9 408.0,126.4 408.5,126.7 410.4,126.4 411.6,126.3 412.0,125.9 414.4,125.8 415.1,125.8 416.9,126.1 421.3,126.1 424.4,126.3 425.5,126.3 425.9,125.9 426.4,125.8 428.8,126.0 430.8,125.8 432.0,125.9 432.2,125.8 432.3,125.2 432.1,123.7 432.0,121.2 431.8,120.2 431.9,118.1 431.7,112.8 431.7,111.3 431.8,110.8 432.1,110.4 432.6,110.1 433.2,110.2 433.8,109.9 434.4,109.2 434.2,108.7 434.3,108.2 435.5,107.2 435.9,106.2 436.9,104.5 437.1,104.0 437.6,102.1 437.9,100.3 438.7,99.4 438.9,98.9 439.3,98.6 441.3,98.0 444.0,97.3 439.1,98.5 438.6,98.5 438.0,98.5 436.9,98.7 436.6,99.0 435.7,99.6 433.6,100.6 431.5,101.7 427.5,103.4 425.5,104.5 424.3,104.9 421.2,106.5 419.7,107.2 419.3,107.5 418.7,108.3 418.4,108.7 418.3,109.2 418.2,109.8 418.3,110.7 418.6,113.0 418.8,114.0 418.7,114.5 418.4,115.4 418.1,115.7 415.8,115.9 412.8,115.9 411.8,116.1 411.8,118.1 412.0,118.6 412.5,118.9 413.0,118.9 414.2,118.8 415.3,118.8 415.7,119.1 416.3,120.1 416.5,120.6 417.0,123.1 417.0,124.1 417.4,124.5" stroke="#71717a" stroke-linecap="round" stroke-linejoin="round" stroke-width="1.2" /><polyline fill="none" points="464.0,120.0 463.6,119.5 463.0,119.4 461.1,119.4 460.5,119.4 460.2,118.9 460.0,117.8 460.4,117.3 464.1,116.7 466.1,117.0 467.4,117.0 468.0,117.4 468.6,117.4 469.1,117.0 469.6,116.8 471.3,116.4 473.0,115.7 479.0,112.8 480.1,112.3 481.5,112.0 482.1,112.1 482.5,111.7 482.8,111.1 483.0,110.0 484.0,109.2 485.2,108.8 486.6,107.8 486.6,107.2 487.6,105.6 488.4,103.7 488.9,102.0 489.0,100.0 489.2,99.4 489.6,99.0 490.2,98.7 492.0,98.2 495.8,97.5 495.9,97.5 496.0,97.4 495.9,97.3 495.9,97.2 494.8,97.6 493.0,97.6 490.0,98.2 488.8,98.1 488.2,98.3 487.6,98.5 487.2,98.9 485.5,99.9 483.3,100.9 482.2,101.5 478.6,103.1 477.5,103.4 473.6,105.4 473.0,105.5 471.9,106.0 471.4,106.4 470.6,107.2 468.4,108.5 467.9,108.8 467.6,109.3 467.2,111.0 467.2,111.5 467.6,113.6 467.7,115.3 467.4,116.3 467.4,116.9 466.9,117.3 465.1,117.5 463.9,117.7 460.7,117.7 460.2,117.8 460.1,118.9 460.5,119.3 462.9,118.8 463.5,119.0 464.1,119.4 464.5,120.4 465.2,121.3 465.6,124.1 465.9,125.2 465.9,126.2 466.4,126.6 467.0,126.7 467.6,126.8" stroke="#71717a" stroke-linecap="round" stroke-linejoin="round" stroke-width="1.2" /><polyline fill="none" points="523.0,111.3 523.2,111.3 523.1,111.5 524.1,110.9 524.5,110.7 525.4,110.5 526.1,110.3 526.8,109.9 528.5,109.0 529.9,108.4 530.3,108.3 530.7,108.5 531.0,108.7 531.1,109.0 531.0,109.4 531.2,109.7 532.0,109.8 532.7,109.9 534.8,110.2 535.9,110.6 536.7,110.6 539.7,109.8 542.5,109.6 543.6,109.4 545.2,109.0 546.4,108.8 547.1,108.5 547.3,108.2 547.4,107.5 547.4,107.1 547.4,106.8 547.8,106.6 548.0,107.8 547.9,108.1 547.5,108.2 547.1,108.3 546.5,108.9 546.2,109.0 545.8,109.0 545.0,109.1 543.1,109.6 542.3,109.8 539.9,110.2 538.7,110.3 537.1,110.8 535.8,110.9 535.4,110.8 534.6,110.4 533.9,110.2 533.5,110.2 532.7,110.2 531.1,109.9 530.3,109.5 529.7,109.1 529.3,109.0 527.2,110.1 526.0,110.5 525.3,110.9 524.1,111.1 523.7,111.2 523.4,111.4 523.0,111.5 522.3,111.4 520.8,111.5 519.2,111.4 517.6,111.6 516.9,111.5 516.3,111.0 515.9,111.0 514.6,111.0 513.1,110.9 512.3,110.9 512.1,110.7 512.0,110.4 516.0,112.3 517.3,112.3 517.6,112.3 518.0,112.5 518.2,113.2 518.6,113.4 519.0,113.5 520.6,113.3 520.9,113.6 521.1,113.9 521.2,114.2 521.3,114.5 521.3,115.2 521.5,116.3 521.6,116.6 521.7,117.2 522.0,117.4" stroke="#71717a" stroke-linecap="round" stroke-linejoin="round" stroke-width="1.2" /><text fill="#71717a" font-family="sans-serif" font-size="10" font-weight="bold" x="40" y="157">SPECIAL TRACKS</text><rect fill="#3b82f6" height="10" rx="2" width="10" x="40" y="164" /><text fill="#a0a0a0" font-family="sans-serif" font-size="10" x="54" y="173">Over 5.0 km</text><rect fill="#eab308" height="10" rx="2" width="10" x="160" y="164" /><text fill="#a0a0a0" font-family="sans-serif" font-size="10" x="174" y="173">Over 10.0 km</text><rect fill="#E31937" height="10" rx="2" width="10" x="40" y="180" /><text fill="#a0a0a0" font-family="sans-serif" font-size="10" x="54" y="189">Over 20.0 km</text><rect fill="#a855f7" height="10" rx="2" width="10" x="160" y="180" /><text fill="#a0a0a0" font-family="sans-serif" font-size="10" x="174" y="189">Over 40.0 km</text><text fill="#71717a" font-family="sans-serif" font-size="10" font-weight="bold" x="380" y="157">STATISTICS</text><text fill="#71717a" font-family="sans-serif" font-size="10" x="380" y="173">Runs: </text><text fill="white" font-family="sans-serif" font-size="10" text-anchor="end" x="465" y="173">10</text><text fill="#71717a" font-family="sans-serif" font-size="10" x="480" y="173">Dist: </text><text fill="white" font-family="sans-serif" font-size="10" text-anchor="end" x="565" y="173">27.25 km</text><text fill="#71717a" font-family="sans-serif" font-size="10" x="580" y="173">Time: </text><text fill="white" font-family="sans-serif" font-size="10" text-anchor="end" x="665" y="173">2h 46m</text><text fill="#71717a" font-family="sans-serif" font-size="10" x="380" y="189">Max: </text><text fill="white" font-family="sans-serif" font-size="10" text-anchor="end" x="465" y="189">3.13 km</text><text fill="#71717a" font-family="sans-serif" font-size="10" x="480" y="189">Pace: </text><text fill="white" font-family="sans-serif" font-size="10" text-anchor="end" x="565" y="189">6'06"</text><text fill="#71717a" font-family="sans-serif" font-size="10" x="580" y="189">HR: </text><text fill="white" font-family="sans-serif" font-size="10" text-anchor="end" x="665" y="189">0 bpm</text></svg>